<mxfile host="app.diagrams.net" agent="Mozilla/5.0 (Macintosh; Intel Mac OS X 10_15_7) AppleWebKit/537.36 (KHTML, like Gecko) Chrome/129.0.0.0 Safari/537.36" version="24.7.12">
  <diagram name="Page-1" id="pnvVoBZ5i4kmpRvMOao1">
    <mxGraphModel dx="720" dy="398" grid="1" gridSize="10" guides="1" tooltips="1" connect="1" arrows="1" fold="1" page="1" pageScale="1" pageWidth="850" pageHeight="1100" math="0" shadow="0">
      <root>
        <mxCell id="0" />
        <mxCell id="1" parent="0" />
        <mxCell id="nOGWIP9tSTL0KJmNfYc6-30" value="" style="rounded=0;whiteSpace=wrap;html=1;fillColor=#f8cecc;strokeColor=#b85450;strokeWidth=2;" vertex="1" parent="1">
          <mxGeometry x="40" y="40" width="680" height="320" as="geometry" />
        </mxCell>
        <mxCell id="nOGWIP9tSTL0KJmNfYc6-1" value="" style="rounded=0;whiteSpace=wrap;html=1;strokeWidth=2;" vertex="1" parent="1">
          <mxGeometry x="80" y="120" width="120" height="80" as="geometry" />
        </mxCell>
        <mxCell id="nOGWIP9tSTL0KJmNfYc6-3" value="" style="endArrow=none;html=1;rounded=0;exitX=0.205;exitY=1;exitDx=0;exitDy=0;exitPerimeter=0;strokeWidth=2;" edge="1" parent="1">
          <mxGeometry width="50" height="50" relative="1" as="geometry">
            <mxPoint x="161" y="200" as="sourcePoint" />
            <mxPoint x="160" y="120" as="targetPoint" />
          </mxGeometry>
        </mxCell>
        <mxCell id="nOGWIP9tSTL0KJmNfYc6-4" value="" style="endArrow=none;html=1;rounded=0;exitX=0.205;exitY=1;exitDx=0;exitDy=0;exitPerimeter=0;strokeWidth=2;" edge="1" parent="1">
          <mxGeometry width="50" height="50" relative="1" as="geometry">
            <mxPoint x="121" y="200" as="sourcePoint" />
            <mxPoint x="120" y="120" as="targetPoint" />
          </mxGeometry>
        </mxCell>
        <mxCell id="nOGWIP9tSTL0KJmNfYc6-5" value="" style="rounded=0;whiteSpace=wrap;html=1;strokeWidth=2;" vertex="1" parent="1">
          <mxGeometry x="240" y="120" width="120" height="80" as="geometry" />
        </mxCell>
        <mxCell id="nOGWIP9tSTL0KJmNfYc6-6" value="" style="endArrow=none;html=1;rounded=0;exitX=0.205;exitY=1;exitDx=0;exitDy=0;exitPerimeter=0;strokeWidth=2;" edge="1" parent="1">
          <mxGeometry width="50" height="50" relative="1" as="geometry">
            <mxPoint x="321" y="200" as="sourcePoint" />
            <mxPoint x="320" y="120" as="targetPoint" />
          </mxGeometry>
        </mxCell>
        <mxCell id="nOGWIP9tSTL0KJmNfYc6-7" value="" style="endArrow=none;html=1;rounded=0;exitX=0.205;exitY=1;exitDx=0;exitDy=0;exitPerimeter=0;strokeWidth=2;" edge="1" parent="1">
          <mxGeometry width="50" height="50" relative="1" as="geometry">
            <mxPoint x="281" y="200" as="sourcePoint" />
            <mxPoint x="280" y="120" as="targetPoint" />
          </mxGeometry>
        </mxCell>
        <mxCell id="nOGWIP9tSTL0KJmNfYc6-8" value="" style="rounded=0;whiteSpace=wrap;html=1;strokeWidth=2;" vertex="1" parent="1">
          <mxGeometry x="400" y="120" width="120" height="80" as="geometry" />
        </mxCell>
        <mxCell id="nOGWIP9tSTL0KJmNfYc6-9" value="" style="endArrow=none;html=1;rounded=0;exitX=0.205;exitY=1;exitDx=0;exitDy=0;exitPerimeter=0;strokeWidth=2;" edge="1" parent="1">
          <mxGeometry width="50" height="50" relative="1" as="geometry">
            <mxPoint x="481" y="200" as="sourcePoint" />
            <mxPoint x="480" y="120" as="targetPoint" />
          </mxGeometry>
        </mxCell>
        <mxCell id="nOGWIP9tSTL0KJmNfYc6-10" value="" style="endArrow=none;html=1;rounded=0;exitX=0.205;exitY=1;exitDx=0;exitDy=0;exitPerimeter=0;strokeWidth=2;" edge="1" parent="1">
          <mxGeometry width="50" height="50" relative="1" as="geometry">
            <mxPoint x="441" y="200" as="sourcePoint" />
            <mxPoint x="440" y="120" as="targetPoint" />
          </mxGeometry>
        </mxCell>
        <mxCell id="nOGWIP9tSTL0KJmNfYc6-11" value="" style="rounded=0;whiteSpace=wrap;html=1;strokeWidth=2;" vertex="1" parent="1">
          <mxGeometry x="560" y="120" width="120" height="80" as="geometry" />
        </mxCell>
        <mxCell id="nOGWIP9tSTL0KJmNfYc6-12" value="" style="endArrow=none;html=1;rounded=0;exitX=0.205;exitY=1;exitDx=0;exitDy=0;exitPerimeter=0;strokeWidth=2;" edge="1" parent="1">
          <mxGeometry width="50" height="50" relative="1" as="geometry">
            <mxPoint x="641" y="200" as="sourcePoint" />
            <mxPoint x="640" y="120" as="targetPoint" />
          </mxGeometry>
        </mxCell>
        <mxCell id="nOGWIP9tSTL0KJmNfYc6-13" value="" style="endArrow=none;html=1;rounded=0;exitX=0.205;exitY=1;exitDx=0;exitDy=0;exitPerimeter=0;strokeWidth=2;" edge="1" parent="1">
          <mxGeometry width="50" height="50" relative="1" as="geometry">
            <mxPoint x="601" y="200" as="sourcePoint" />
            <mxPoint x="600" y="120" as="targetPoint" />
          </mxGeometry>
        </mxCell>
        <mxCell id="nOGWIP9tSTL0KJmNfYc6-14" value="" style="endArrow=classic;html=1;rounded=0;entryX=-0.008;entryY=0.363;entryDx=0;entryDy=0;entryPerimeter=0;strokeWidth=2;" edge="1" parent="1" target="nOGWIP9tSTL0KJmNfYc6-5">
          <mxGeometry width="50" height="50" relative="1" as="geometry">
            <mxPoint x="180" y="150" as="sourcePoint" />
            <mxPoint x="230" y="100" as="targetPoint" />
          </mxGeometry>
        </mxCell>
        <mxCell id="nOGWIP9tSTL0KJmNfYc6-15" value="" style="endArrow=classic;html=1;rounded=0;entryX=-0.008;entryY=0.363;entryDx=0;entryDy=0;entryPerimeter=0;strokeWidth=2;" edge="1" parent="1">
          <mxGeometry width="50" height="50" relative="1" as="geometry">
            <mxPoint x="341" y="151" as="sourcePoint" />
            <mxPoint x="400" y="150" as="targetPoint" />
          </mxGeometry>
        </mxCell>
        <mxCell id="nOGWIP9tSTL0KJmNfYc6-16" value="" style="endArrow=classic;html=1;rounded=0;entryX=-0.008;entryY=0.363;entryDx=0;entryDy=0;entryPerimeter=0;strokeWidth=2;" edge="1" parent="1">
          <mxGeometry width="50" height="50" relative="1" as="geometry">
            <mxPoint x="501" y="151" as="sourcePoint" />
            <mxPoint x="560" y="150" as="targetPoint" />
          </mxGeometry>
        </mxCell>
        <mxCell id="nOGWIP9tSTL0KJmNfYc6-17" value="" style="endArrow=classic;html=1;rounded=0;entryX=1;entryY=0.75;entryDx=0;entryDy=0;strokeWidth=2;" edge="1" parent="1">
          <mxGeometry width="50" height="50" relative="1" as="geometry">
            <mxPoint x="580" y="170" as="sourcePoint" />
            <mxPoint x="519.9999999999999" y="170" as="targetPoint" />
          </mxGeometry>
        </mxCell>
        <mxCell id="nOGWIP9tSTL0KJmNfYc6-18" value="" style="endArrow=classic;html=1;rounded=0;entryX=1;entryY=0.75;entryDx=0;entryDy=0;strokeWidth=2;" edge="1" parent="1">
          <mxGeometry width="50" height="50" relative="1" as="geometry">
            <mxPoint x="420" y="170" as="sourcePoint" />
            <mxPoint x="359.9999999999999" y="170" as="targetPoint" />
          </mxGeometry>
        </mxCell>
        <mxCell id="nOGWIP9tSTL0KJmNfYc6-19" value="" style="endArrow=classic;html=1;rounded=0;entryX=1;entryY=0.75;entryDx=0;entryDy=0;strokeWidth=2;" edge="1" parent="1">
          <mxGeometry width="50" height="50" relative="1" as="geometry">
            <mxPoint x="260" y="170" as="sourcePoint" />
            <mxPoint x="199.9999999999999" y="170" as="targetPoint" />
          </mxGeometry>
        </mxCell>
        <mxCell id="nOGWIP9tSTL0KJmNfYc6-20" value="&lt;font style=&quot;font-size: 11px;&quot;&gt;null&lt;/font&gt;" style="text;html=1;align=center;verticalAlign=middle;resizable=0;points=[];autosize=1;strokeColor=none;fillColor=none;strokeWidth=2;" vertex="1" parent="1">
          <mxGeometry x="80" y="145" width="40" height="30" as="geometry" />
        </mxCell>
        <mxCell id="nOGWIP9tSTL0KJmNfYc6-21" value="&lt;font style=&quot;font-size: 11px;&quot;&gt;null&lt;/font&gt;" style="text;html=1;align=center;verticalAlign=middle;resizable=0;points=[];autosize=1;strokeColor=none;fillColor=none;strokeWidth=2;" vertex="1" parent="1">
          <mxGeometry x="640" y="145" width="40" height="30" as="geometry" />
        </mxCell>
        <mxCell id="nOGWIP9tSTL0KJmNfYc6-22" value="10" style="text;html=1;align=center;verticalAlign=middle;resizable=0;points=[];autosize=1;strokeColor=none;fillColor=none;strokeWidth=2;" vertex="1" parent="1">
          <mxGeometry x="120" y="145" width="40" height="30" as="geometry" />
        </mxCell>
        <mxCell id="nOGWIP9tSTL0KJmNfYc6-23" value="70&lt;span style=&quot;color: rgba(0, 0, 0, 0); font-family: monospace; font-size: 0px; text-align: start;&quot;&gt;%3CmxGraphModel%3E%3Croot%3E%3CmxCell%20id%3D%220%22%2F%3E%3CmxCell%20id%3D%221%22%20parent%3D%220%22%2F%3E%3CmxCell%20id%3D%222%22%20value%3D%22%26lt%3Bfont%20style%3D%26quot%3Bfont-size%3A%2011px%3B%26quot%3B%26gt%3Bnull%26lt%3B%2Ffont%26gt%3B%22%20style%3D%22text%3Bhtml%3D1%3Balign%3Dcenter%3BverticalAlign%3Dmiddle%3Bresizable%3D0%3Bpoints%3D%5B%5D%3Bautosize%3D1%3BstrokeColor%3Dnone%3BfillColor%3Dnone%3B%22%20vertex%3D%221%22%20parent%3D%221%22%3E%3CmxGeometry%20x%3D%2280%22%20y%3D%22145%22%20width%3D%2240%22%20height%3D%2230%22%20as%3D%22geometry%22%2F%3E%3C%2FmxCell%3E%3C%2Froot%3E%3C%2FmxGraphModel%3E&lt;/span&gt;" style="text;html=1;align=center;verticalAlign=middle;resizable=0;points=[];autosize=1;strokeColor=none;fillColor=none;strokeWidth=2;" vertex="1" parent="1">
          <mxGeometry x="280" y="145" width="40" height="30" as="geometry" />
        </mxCell>
        <mxCell id="nOGWIP9tSTL0KJmNfYc6-24" value="20" style="text;html=1;align=center;verticalAlign=middle;resizable=0;points=[];autosize=1;strokeColor=none;fillColor=none;strokeWidth=2;" vertex="1" parent="1">
          <mxGeometry x="440" y="145" width="40" height="30" as="geometry" />
        </mxCell>
        <mxCell id="nOGWIP9tSTL0KJmNfYc6-25" value="90" style="text;html=1;align=center;verticalAlign=middle;resizable=0;points=[];autosize=1;strokeColor=none;fillColor=none;strokeWidth=2;" vertex="1" parent="1">
          <mxGeometry x="600" y="145" width="40" height="30" as="geometry" />
        </mxCell>
        <mxCell id="nOGWIP9tSTL0KJmNfYc6-26" value="head" style="rounded=0;whiteSpace=wrap;html=1;strokeWidth=2;" vertex="1" parent="1">
          <mxGeometry x="80" y="240" width="120" height="40" as="geometry" />
        </mxCell>
        <mxCell id="nOGWIP9tSTL0KJmNfYc6-27" value="tail" style="rounded=0;whiteSpace=wrap;html=1;strokeWidth=2;" vertex="1" parent="1">
          <mxGeometry x="560" y="240" width="120" height="40" as="geometry" />
        </mxCell>
        <mxCell id="nOGWIP9tSTL0KJmNfYc6-28" value="" style="endArrow=classic;html=1;rounded=0;entryX=0.5;entryY=1;entryDx=0;entryDy=0;exitX=0.5;exitY=0;exitDx=0;exitDy=0;strokeWidth=2;" edge="1" parent="1" source="nOGWIP9tSTL0KJmNfYc6-26" target="nOGWIP9tSTL0KJmNfYc6-1">
          <mxGeometry width="50" height="50" relative="1" as="geometry">
            <mxPoint x="130" y="240" as="sourcePoint" />
            <mxPoint x="180" y="190" as="targetPoint" />
          </mxGeometry>
        </mxCell>
        <mxCell id="nOGWIP9tSTL0KJmNfYc6-29" value="" style="endArrow=classic;html=1;rounded=0;entryX=0.5;entryY=1;entryDx=0;entryDy=0;exitX=0.5;exitY=0;exitDx=0;exitDy=0;strokeWidth=2;" edge="1" parent="1">
          <mxGeometry width="50" height="50" relative="1" as="geometry">
            <mxPoint x="619.71" y="240" as="sourcePoint" />
            <mxPoint x="619.71" y="200" as="targetPoint" />
          </mxGeometry>
        </mxCell>
      </root>
    </mxGraphModel>
  </diagram>
</mxfile>
